<svg xmlns="http://www.w3.org/2000/svg" xmlns:xlink="http://www.w3.org/1999/xlink" viewBox="0 0 716.04 811.6"><defs><style>.cls-1{fill:url(#Degradado_sin_nombre_7);}</style><linearGradient id="Degradado_sin_nombre_7" x1="358.02" y1="811.6" x2="358.02" gradientUnits="userSpaceOnUse"><stop offset="0" stop-color="#6cc5cd"/><stop offset="1" stop-color="#0c101f"/></linearGradient></defs><g id="Capa_2" data-name="Capa 2"><g id="Capa_1-2" data-name="Capa 1"><path class="cls-1" d="M358,811.6a49.08,49.08,0,0,1-24.52-6.55l-309-178.39A49.19,49.19,0,0,1,0,584.19V227.41a49.18,49.18,0,0,1,24.52-42.47L333.5,6.55a49.19,49.19,0,0,1,49,0l309,178.39A49.17,49.17,0,0,1,716,227.41V584.19a49.17,49.17,0,0,1-24.52,42.47l-309,178.39A49.08,49.08,0,0,1,358,811.6ZM358,42a7.11,7.11,0,0,0-3.52.94l-309,178.39a7.07,7.07,0,0,0-3.52,6.1V584.19a7.07,7.07,0,0,0,3.52,6.1l309,178.39a7.08,7.08,0,0,0,7,0l309-178.39a7.07,7.07,0,0,0,3.52-6.1V227.41a7.07,7.07,0,0,0-3.52-6.1l-309-178.39A7.09,7.09,0,0,0,358,42Z"/></g></g></svg>