<svg xmlns="http://www.w3.org/2000/svg" viewBox="0 0 31.86 31.42" width="1em" height="1em"><defs><style>.cls-1{fill:#9575cd;}.cls-2{fill:#fbc02d;}</style></defs><path class="cls-1" d="M31.77,4.19,16.8,31a.81.81,0,0,1-1.1.32.82.82,0,0,1-.32-.32L.11,4.2A.82.82,0,0,1,.43,3.08.86.86,0,0,1,1,3L11,4.79l-.51,8.72a.91.91,0,0,0,.23.65.93.93,0,0,0,.62.31h.26l2.94-.68-.88,4.35a.88.88,0,0,0,.27.85.91.91,0,0,0,.88.2l1.76-.53-1.43,6.89a.9.9,0,0,0,.54,1,1,1,0,0,0,.35.07.89.89,0,0,0,.76-.42L26,7.88a.91.91,0,0,0-.09-1,.88.88,0,0,0-.91-.3l-3,.59.78-2.69L30.92,3a.81.81,0,0,1,.85,1.19Z" transform="translate(-0.01)"/><path class="cls-2" d="M17.59,18.68a.92.92,0,0,0-.89-1.1h-.27l-1.75.54.88-4.34a.88.88,0,0,0-.25-.83.92.92,0,0,0-.84-.23l-3,.69L12,5l.17-2.84L23,0,21.69,4.68,21,7a.88.88,0,0,0,.2.86.91.91,0,0,0,.84.28l3-.58-8.79,17.6Z" transform="translate(-0.01)"/></svg>